# xmcd
#
# Track frame offsets: 
#        150
#        24477
#        41987
#        68774
#        90600
#
# Disc length: 1471 seconds
#
# Revision: 1
# Processed by: cddbd v1.5.2PL0 Copyright (c) Steve Scherf et al.
# Submitted via: ExactAudioCopy v1.3
#
DISCID=3b05bd05
DTITLE=Civil War - Civil War (EP)
DYEAR=2012
DGENRE=Metal
TTITLE0=Rome Is Falling
TTITLE1=Civil War
TTITLE2=Forevermore
TTITLE3=Custer's Last Stand
TTITLE4=Say It Right
EXTD=
EXTT0=
EXTT1=
EXTT2=
EXTT3=
EXTT4=
PLAYORDER=
